<svg xmlns="http://www.w3.org/2000/svg" xmlns:xlink="http://www.w3.org/1999/xlink" version="1.1" x="0px" y="0px" viewBox="0 0 100 125" enable-background="new 0 0 100 100" xml:space="preserve"><path d="M32.166,77c0,1.1-0.9,2-2,2h-6.333c-1.1,0-2-0.9-2-2V58.919c0-1.1,0.9-2,2-2h6.333c1.1,0,2,0.9,2,2V77z"/><path d="M48.166,77c0,1.1-0.9,2-2,2h-6.333c-1.1,0-2-0.9-2-2V48.387c0-1.1,0.9-2,2-2h6.333c1.1,0,2,0.9,2,2V77z"/><path d="M64.167,77c0,1.1-0.9,2-2,2h-6.333c-1.1,0-2-0.9-2-2V50.671c0-1.1,0.9-2,2-2h6.333c1.1,0,2,0.9,2,2V77z"/><path d="M80.168,77c0,1.1-0.9,2-2,2h-6.334c-1.1,0-2-0.9-2-2V44.833c0-1.1,0.9-2,2-2h6.334c1.1,0,2,0.9,2,2V77z"/><path d="M77,19.11c0,0.08,0,0.16-0.01,0.24l-0.01,0.09l-0.62,6.66c-0.101,1.04-0.971,1.81-1.99,1.81c-0.061,0-0.12,0-0.19-0.01  c-1.1-0.1-1.899-1.07-1.8-2.17l0.18-1.93L60.28,34.04c-0.431,0.35-0.98,0.52-1.53,0.44L43.68,32.6L28.37,46.96  c-0.39,0.36-0.88,0.54-1.37,0.54c-0.53,0-1.07-0.21-1.46-0.63c-0.75-0.81-0.71-2.07,0.09-2.83l16-15c0.44-0.41,1.03-0.6,1.62-0.52  l15.14,1.89l11.641-9.7l-1.96-0.19c-1.101-0.1-1.91-1.07-1.811-2.17c0.11-1.1,1.07-1.91,2.181-1.81l6.729,0.64h0.021  c0.229,0.02,0.439,0.08,0.64,0.17c0.06,0.03,0.11,0.05,0.17,0.08c0.02,0.02,0.04,0.03,0.06,0.04c0.101,0.06,0.2,0.14,0.29,0.23  c0.091,0.07,0.17,0.15,0.23,0.24c0.06,0.08,0.11,0.16,0.16,0.24c0.05,0.09,0.1,0.18,0.13,0.28c0.04,0.1,0.07,0.21,0.09,0.32  C76.99,18.88,77,19,77,19.11z"/></svg>